<?xml version="1.0" standalone="no"?>
<!DOCTYPE svg PUBLIC "-//W3C//DTD SVG 20010904//EN"
 "http://www.w3.org/TR/2001/REC-SVG-20010904/DTD/svg10.dtd">
<svg version="1.0" xmlns="http://www.w3.org/2000/svg"
 width="1060.000000pt" height="1060.000000pt" viewBox="0 0 1060.000000 1060.000000"
 preserveAspectRatio="xMidYMid meet">
<metadata>
Created by potrace 1.14, written by Peter Selinger 2001-2017
</metadata>
<g transform="translate(0.000000,1060.000000) scale(0.100000,-0.100000)"
fill="#000000" stroke="none">
<path d="M4900 10570 c-488 -37 -860 -105 -1280 -237 -484 -151 -967 -395
-1390 -701 -623 -451 -1189 -1074 -1568 -1727 -77 -133 -262 -505 -262 -527 0
-8 -12 -42 -26 -74 -93 -207 -232 -684 -284 -974 -104 -578 -116 -1245 -34
-1845 37 -273 121 -628 219 -920 200 -600 499 -1133 926 -1645 95 -114 454
-484 574 -591 425 -379 880 -677 1366 -895 928 -416 2063 -538 3149 -340 146
27 374 78 449 100 251 77 337 105 470 158 243 95 517 228 696 336 44 26 91 54
104 62 384 231 845 619 1210 1020 399 437 751 985 940 1460 23 58 48 119 56
135 15 33 113 323 126 370 4 17 19 71 33 121 84 306 142 662 166 1024 14 215
14 643 1 840 -26 370 -104 805 -200 1115 -10 33 -24 80 -32 105 -7 25 -39 116
-71 202 -32 86 -58 161 -58 167 0 6 -18 50 -40 98 -24 52 -36 89 -30 93 15 9
-134 301 -248 485 -269 437 -558 792 -938 1154 -94 90 -145 136 -274 245 -210
177 -524 398 -761 534 -148 85 -447 230 -604 292 -476 190 -953 303 -1480 351
-156 14 -757 20 -905 9z"/>
</g>
</svg>
